<mxfile host="app.diagrams.net" modified="2024-04-01T08:20:39.994Z" agent="Mozilla/5.0 (Windows NT 10.0; Win64; x64) AppleWebKit/537.36 (KHTML, like Gecko) Chrome/123.0.0.0 Safari/537.36" etag="sJXoNFdBisJABPoSPUx3" version="24.0.5" type="device">
  <diagram name="Page-1" id="2YBvvXClWsGukQMizWep">
    <mxGraphModel dx="1568" dy="1186" grid="1" gridSize="10" guides="1" tooltips="1" connect="1" arrows="1" fold="1" page="1" pageScale="1" pageWidth="850" pageHeight="1100" math="0" shadow="0">
      <root>
        <mxCell id="0" />
        <mxCell id="1" parent="0" />
        <mxCell id="-MzAeiQj3mPVBVqikxLo-1" value="" style="rounded=0;whiteSpace=wrap;html=1;" vertex="1" parent="1">
          <mxGeometry x="390" y="10" width="940" height="1110" as="geometry" />
        </mxCell>
        <mxCell id="-MzAeiQj3mPVBVqikxLo-2" value="비회원" style="shape=umlActor;verticalLabelPosition=bottom;verticalAlign=top;html=1;outlineConnect=0;" vertex="1" parent="1">
          <mxGeometry x="260" y="100" width="30" height="60" as="geometry" />
        </mxCell>
        <mxCell id="-MzAeiQj3mPVBVqikxLo-3" value="회원&lt;div&gt;&lt;br&gt;&lt;/div&gt;" style="shape=umlActor;verticalLabelPosition=bottom;verticalAlign=top;html=1;outlineConnect=0;strokeColor=#FF0000;" vertex="1" parent="1">
          <mxGeometry x="250" y="620" width="30" height="60" as="geometry" />
        </mxCell>
        <mxCell id="-MzAeiQj3mPVBVqikxLo-8" value="지역 소개" style="ellipse;whiteSpace=wrap;html=1;" vertex="1" parent="1">
          <mxGeometry x="425" y="30" width="120" height="80" as="geometry" />
        </mxCell>
        <mxCell id="-MzAeiQj3mPVBVqikxLo-9" value="시선안내" style="ellipse;whiteSpace=wrap;html=1;" vertex="1" parent="1">
          <mxGeometry x="545" y="30" width="120" height="80" as="geometry" />
        </mxCell>
        <mxCell id="-MzAeiQj3mPVBVqikxLo-10" value="오시는 길" style="ellipse;whiteSpace=wrap;html=1;" vertex="1" parent="1">
          <mxGeometry x="665" y="30" width="120" height="80" as="geometry" />
        </mxCell>
        <mxCell id="-MzAeiQj3mPVBVqikxLo-11" value="&lt;font color=&quot;#ff0000&quot;&gt;지역소개&lt;/font&gt;" style="ellipse;whiteSpace=wrap;html=1;strokeColor=#FF0000;" vertex="1" parent="1">
          <mxGeometry x="545" y="140" width="120" height="80" as="geometry" />
        </mxCell>
        <mxCell id="-MzAeiQj3mPVBVqikxLo-12" value="" style="endArrow=classic;html=1;rounded=0;exitX=0.5;exitY=1;exitDx=0;exitDy=0;entryX=0.5;entryY=0;entryDx=0;entryDy=0;" edge="1" parent="1" source="-MzAeiQj3mPVBVqikxLo-9" target="-MzAeiQj3mPVBVqikxLo-11">
          <mxGeometry width="50" height="50" relative="1" as="geometry">
            <mxPoint x="570" y="340" as="sourcePoint" />
            <mxPoint x="620" y="290" as="targetPoint" />
          </mxGeometry>
        </mxCell>
        <mxCell id="-MzAeiQj3mPVBVqikxLo-13" value="" style="endArrow=classic;html=1;rounded=0;exitX=0.5;exitY=1;exitDx=0;exitDy=0;entryX=0.5;entryY=0;entryDx=0;entryDy=0;" edge="1" parent="1" source="-MzAeiQj3mPVBVqikxLo-10" target="-MzAeiQj3mPVBVqikxLo-11">
          <mxGeometry width="50" height="50" relative="1" as="geometry">
            <mxPoint x="615" y="120" as="sourcePoint" />
            <mxPoint x="615" y="150" as="targetPoint" />
          </mxGeometry>
        </mxCell>
        <mxCell id="-MzAeiQj3mPVBVqikxLo-14" value="" style="endArrow=classic;html=1;rounded=0;exitX=0.5;exitY=1;exitDx=0;exitDy=0;entryX=0.5;entryY=0;entryDx=0;entryDy=0;" edge="1" parent="1" source="-MzAeiQj3mPVBVqikxLo-8" target="-MzAeiQj3mPVBVqikxLo-11">
          <mxGeometry width="50" height="50" relative="1" as="geometry">
            <mxPoint x="625" y="130" as="sourcePoint" />
            <mxPoint x="625" y="160" as="targetPoint" />
          </mxGeometry>
        </mxCell>
        <mxCell id="-MzAeiQj3mPVBVqikxLo-15" value="내용 수정" style="ellipse;whiteSpace=wrap;html=1;" vertex="1" parent="1">
          <mxGeometry x="750" y="135" width="120" height="80" as="geometry" />
        </mxCell>
        <mxCell id="-MzAeiQj3mPVBVqikxLo-16" style="edgeStyle=orthogonalEdgeStyle;rounded=0;orthogonalLoop=1;jettySize=auto;html=1;exitX=0;exitY=1;exitDx=0;exitDy=0;exitPerimeter=0;entryX=0;entryY=0.833;entryDx=0;entryDy=0;entryPerimeter=0;" edge="1" parent="1" source="-MzAeiQj3mPVBVqikxLo-2" target="-MzAeiQj3mPVBVqikxLo-2">
          <mxGeometry relative="1" as="geometry" />
        </mxCell>
        <mxCell id="-MzAeiQj3mPVBVqikxLo-17" value="" style="shape=flexArrow;endArrow=classic;html=1;rounded=0;entryX=0;entryY=0.5;entryDx=0;entryDy=0;" edge="1" parent="1" target="-MzAeiQj3mPVBVqikxLo-11">
          <mxGeometry width="50" height="50" relative="1" as="geometry">
            <mxPoint x="330" y="150" as="sourcePoint" />
            <mxPoint x="380" y="100" as="targetPoint" />
          </mxGeometry>
        </mxCell>
        <mxCell id="-MzAeiQj3mPVBVqikxLo-18" value="" style="endArrow=classic;html=1;rounded=0;entryX=0.025;entryY=0.6;entryDx=0;entryDy=0;entryPerimeter=0;exitX=1;exitY=0.5;exitDx=0;exitDy=0;" edge="1" parent="1" source="-MzAeiQj3mPVBVqikxLo-11" target="-MzAeiQj3mPVBVqikxLo-15">
          <mxGeometry width="50" height="50" relative="1" as="geometry">
            <mxPoint x="570" y="340" as="sourcePoint" />
            <mxPoint x="620" y="290" as="targetPoint" />
          </mxGeometry>
        </mxCell>
        <mxCell id="-MzAeiQj3mPVBVqikxLo-20" value="" style="endArrow=classic;html=1;rounded=0;entryX=1;entryY=0.5;entryDx=0;entryDy=0;exitX=0;exitY=0.3333333333333333;exitDx=0;exitDy=0;exitPerimeter=0;" edge="1" parent="1" source="-MzAeiQj3mPVBVqikxLo-39" target="-MzAeiQj3mPVBVqikxLo-15">
          <mxGeometry width="50" height="50" relative="1" as="geometry">
            <mxPoint x="1320" y="160" as="sourcePoint" />
            <mxPoint x="730" y="290" as="targetPoint" />
          </mxGeometry>
        </mxCell>
        <mxCell id="-MzAeiQj3mPVBVqikxLo-22" value="교통편" style="ellipse;whiteSpace=wrap;html=1;" vertex="1" parent="1">
          <mxGeometry x="580" y="250" width="120" height="80" as="geometry" />
        </mxCell>
        <mxCell id="-MzAeiQj3mPVBVqikxLo-23" value="주요빌딩" style="ellipse;whiteSpace=wrap;html=1;" vertex="1" parent="1">
          <mxGeometry x="700" y="250" width="120" height="80" as="geometry" />
        </mxCell>
        <mxCell id="-MzAeiQj3mPVBVqikxLo-24" value="주요협회" style="ellipse;whiteSpace=wrap;html=1;" vertex="1" parent="1">
          <mxGeometry x="820" y="250" width="120" height="80" as="geometry" />
        </mxCell>
        <mxCell id="-MzAeiQj3mPVBVqikxLo-25" value="&lt;font color=&quot;#ff0000&quot;&gt;이용안내&lt;/font&gt;" style="ellipse;whiteSpace=wrap;html=1;strokeColor=#FF0000;" vertex="1" parent="1">
          <mxGeometry x="860" y="360" width="120" height="80" as="geometry" />
        </mxCell>
        <mxCell id="-MzAeiQj3mPVBVqikxLo-26" value="" style="endArrow=classic;html=1;rounded=0;exitX=0.5;exitY=1;exitDx=0;exitDy=0;entryX=0.5;entryY=0;entryDx=0;entryDy=0;" edge="1" parent="1" source="-MzAeiQj3mPVBVqikxLo-23" target="-MzAeiQj3mPVBVqikxLo-25">
          <mxGeometry width="50" height="50" relative="1" as="geometry">
            <mxPoint x="647.5" y="560" as="sourcePoint" />
            <mxPoint x="697.5" y="510" as="targetPoint" />
          </mxGeometry>
        </mxCell>
        <mxCell id="-MzAeiQj3mPVBVqikxLo-27" value="" style="endArrow=classic;html=1;rounded=0;exitX=0.5;exitY=1;exitDx=0;exitDy=0;entryX=0.5;entryY=0;entryDx=0;entryDy=0;" edge="1" parent="1" source="-MzAeiQj3mPVBVqikxLo-24" target="-MzAeiQj3mPVBVqikxLo-25">
          <mxGeometry width="50" height="50" relative="1" as="geometry">
            <mxPoint x="692.5" y="340" as="sourcePoint" />
            <mxPoint x="692.5" y="370" as="targetPoint" />
          </mxGeometry>
        </mxCell>
        <mxCell id="-MzAeiQj3mPVBVqikxLo-28" value="" style="endArrow=classic;html=1;rounded=0;exitX=0.5;exitY=1;exitDx=0;exitDy=0;entryX=0.5;entryY=0;entryDx=0;entryDy=0;" edge="1" parent="1" source="-MzAeiQj3mPVBVqikxLo-22" target="-MzAeiQj3mPVBVqikxLo-25">
          <mxGeometry width="50" height="50" relative="1" as="geometry">
            <mxPoint x="702.5" y="350" as="sourcePoint" />
            <mxPoint x="702.5" y="380" as="targetPoint" />
          </mxGeometry>
        </mxCell>
        <mxCell id="-MzAeiQj3mPVBVqikxLo-29" value="내용 수정" style="ellipse;whiteSpace=wrap;html=1;" vertex="1" parent="1">
          <mxGeometry x="1130" y="350" width="120" height="80" as="geometry" />
        </mxCell>
        <mxCell id="-MzAeiQj3mPVBVqikxLo-30" value="" style="endArrow=classic;html=1;rounded=0;entryX=0.025;entryY=0.6;entryDx=0;entryDy=0;entryPerimeter=0;exitX=1;exitY=0.5;exitDx=0;exitDy=0;" edge="1" parent="1" source="-MzAeiQj3mPVBVqikxLo-25" target="-MzAeiQj3mPVBVqikxLo-29">
          <mxGeometry width="50" height="50" relative="1" as="geometry">
            <mxPoint x="647.5" y="560" as="sourcePoint" />
            <mxPoint x="697.5" y="510" as="targetPoint" />
          </mxGeometry>
        </mxCell>
        <mxCell id="-MzAeiQj3mPVBVqikxLo-33" value="맛집안내" style="ellipse;whiteSpace=wrap;html=1;" vertex="1" parent="1">
          <mxGeometry x="940" y="250" width="120" height="80" as="geometry" />
        </mxCell>
        <mxCell id="-MzAeiQj3mPVBVqikxLo-34" value="숙박시설" style="ellipse;whiteSpace=wrap;html=1;" vertex="1" parent="1">
          <mxGeometry x="1060" y="250" width="120" height="80" as="geometry" />
        </mxCell>
        <mxCell id="-MzAeiQj3mPVBVqikxLo-36" value="" style="endArrow=classic;html=1;rounded=0;exitX=0.5;exitY=1;exitDx=0;exitDy=0;entryX=0.5;entryY=0;entryDx=0;entryDy=0;" edge="1" parent="1" source="-MzAeiQj3mPVBVqikxLo-33" target="-MzAeiQj3mPVBVqikxLo-25">
          <mxGeometry width="50" height="50" relative="1" as="geometry">
            <mxPoint x="830" y="360" as="sourcePoint" />
            <mxPoint x="880" y="310" as="targetPoint" />
          </mxGeometry>
        </mxCell>
        <mxCell id="-MzAeiQj3mPVBVqikxLo-37" value="" style="endArrow=classic;html=1;rounded=0;exitX=0.5;exitY=1;exitDx=0;exitDy=0;entryX=0.5;entryY=0;entryDx=0;entryDy=0;" edge="1" parent="1" source="-MzAeiQj3mPVBVqikxLo-34" target="-MzAeiQj3mPVBVqikxLo-25">
          <mxGeometry width="50" height="50" relative="1" as="geometry">
            <mxPoint x="830" y="360" as="sourcePoint" />
            <mxPoint x="880" y="310" as="targetPoint" />
          </mxGeometry>
        </mxCell>
        <mxCell id="-MzAeiQj3mPVBVqikxLo-39" value="&lt;font color=&quot;#660033&quot;&gt;운영자&lt;/font&gt;" style="shape=umlActor;verticalLabelPosition=bottom;verticalAlign=top;html=1;outlineConnect=0;fillColor=#660033;" vertex="1" parent="1">
          <mxGeometry x="1540" y="320" width="30" height="60" as="geometry" />
        </mxCell>
        <mxCell id="-MzAeiQj3mPVBVqikxLo-41" value="" style="endArrow=classic;html=1;rounded=0;exitX=0;exitY=0.3333333333333333;exitDx=0;exitDy=0;exitPerimeter=0;entryX=1;entryY=0.5;entryDx=0;entryDy=0;" edge="1" parent="1" source="-MzAeiQj3mPVBVqikxLo-39" target="-MzAeiQj3mPVBVqikxLo-29">
          <mxGeometry width="50" height="50" relative="1" as="geometry">
            <mxPoint x="630" y="360" as="sourcePoint" />
            <mxPoint x="680" y="310" as="targetPoint" />
          </mxGeometry>
        </mxCell>
        <mxCell id="-MzAeiQj3mPVBVqikxLo-42" value="글관리&lt;div&gt;&lt;br&gt;&lt;/div&gt;" style="ellipse;whiteSpace=wrap;html=1;fillColor=#ffe6cc;strokeColor=#d79b00;" vertex="1" parent="1">
          <mxGeometry x="930" y="460" width="140" height="40" as="geometry" />
        </mxCell>
        <mxCell id="-MzAeiQj3mPVBVqikxLo-43" value="" style="endArrow=classic;html=1;rounded=0;entryX=1;entryY=0.5;entryDx=0;entryDy=0;" edge="1" parent="1" target="-MzAeiQj3mPVBVqikxLo-42">
          <mxGeometry width="50" height="50" relative="1" as="geometry">
            <mxPoint x="1520" y="340" as="sourcePoint" />
            <mxPoint x="1260" y="400" as="targetPoint" />
          </mxGeometry>
        </mxCell>
        <mxCell id="-MzAeiQj3mPVBVqikxLo-44" value="" style="endArrow=classic;html=1;rounded=0;entryX=0.5;entryY=0;entryDx=0;entryDy=0;exitX=1;exitY=0.5;exitDx=0;exitDy=0;" edge="1" parent="1" target="-MzAeiQj3mPVBVqikxLo-45">
          <mxGeometry width="50" height="50" relative="1" as="geometry">
            <mxPoint x="561" y="520" as="sourcePoint" />
            <mxPoint x="649" y="523" as="targetPoint" />
          </mxGeometry>
        </mxCell>
        <mxCell id="-MzAeiQj3mPVBVqikxLo-45" value="목록보기" style="ellipse;whiteSpace=wrap;html=1;" vertex="1" parent="1">
          <mxGeometry x="590" y="570" width="120" height="80" as="geometry" />
        </mxCell>
        <mxCell id="-MzAeiQj3mPVBVqikxLo-46" value="상세보기" style="ellipse;whiteSpace=wrap;html=1;" vertex="1" parent="1">
          <mxGeometry x="700" y="510" width="120" height="80" as="geometry" />
        </mxCell>
        <mxCell id="-MzAeiQj3mPVBVqikxLo-47" value="글등록" style="ellipse;whiteSpace=wrap;html=1;" vertex="1" parent="1">
          <mxGeometry x="830" y="570" width="120" height="80" as="geometry" />
        </mxCell>
        <mxCell id="-MzAeiQj3mPVBVqikxLo-48" value="&lt;font color=&quot;#ff0000&quot;&gt;공지사항&lt;/font&gt;" style="ellipse;whiteSpace=wrap;html=1;strokeColor=#FF0000;" vertex="1" parent="1">
          <mxGeometry x="870" y="680" width="120" height="80" as="geometry" />
        </mxCell>
        <mxCell id="-MzAeiQj3mPVBVqikxLo-49" value="" style="endArrow=classic;html=1;rounded=0;exitX=0.5;exitY=1;exitDx=0;exitDy=0;entryX=0.5;entryY=0;entryDx=0;entryDy=0;" edge="1" parent="1" source="-MzAeiQj3mPVBVqikxLo-46" target="-MzAeiQj3mPVBVqikxLo-48">
          <mxGeometry width="50" height="50" relative="1" as="geometry">
            <mxPoint x="657.5" y="880" as="sourcePoint" />
            <mxPoint x="707.5" y="830" as="targetPoint" />
          </mxGeometry>
        </mxCell>
        <mxCell id="-MzAeiQj3mPVBVqikxLo-50" value="" style="endArrow=classic;html=1;rounded=0;exitX=0.5;exitY=1;exitDx=0;exitDy=0;entryX=0.5;entryY=0;entryDx=0;entryDy=0;" edge="1" parent="1" source="-MzAeiQj3mPVBVqikxLo-47" target="-MzAeiQj3mPVBVqikxLo-48">
          <mxGeometry width="50" height="50" relative="1" as="geometry">
            <mxPoint x="702.5" y="660" as="sourcePoint" />
            <mxPoint x="702.5" y="690" as="targetPoint" />
          </mxGeometry>
        </mxCell>
        <mxCell id="-MzAeiQj3mPVBVqikxLo-51" value="" style="endArrow=classic;html=1;rounded=0;exitX=0.5;exitY=1;exitDx=0;exitDy=0;entryX=0.5;entryY=0;entryDx=0;entryDy=0;" edge="1" parent="1" source="-MzAeiQj3mPVBVqikxLo-45" target="-MzAeiQj3mPVBVqikxLo-48">
          <mxGeometry width="50" height="50" relative="1" as="geometry">
            <mxPoint x="712.5" y="670" as="sourcePoint" />
            <mxPoint x="712.5" y="700" as="targetPoint" />
          </mxGeometry>
        </mxCell>
        <mxCell id="-MzAeiQj3mPVBVqikxLo-54" value="글수정" style="ellipse;whiteSpace=wrap;html=1;" vertex="1" parent="1">
          <mxGeometry x="950" y="570" width="120" height="80" as="geometry" />
        </mxCell>
        <mxCell id="-MzAeiQj3mPVBVqikxLo-55" value="글삭제" style="ellipse;whiteSpace=wrap;html=1;" vertex="1" parent="1">
          <mxGeometry x="1070" y="570" width="120" height="80" as="geometry" />
        </mxCell>
        <mxCell id="-MzAeiQj3mPVBVqikxLo-56" value="" style="endArrow=classic;html=1;rounded=0;exitX=0.5;exitY=1;exitDx=0;exitDy=0;entryX=0.5;entryY=0;entryDx=0;entryDy=0;" edge="1" parent="1" source="-MzAeiQj3mPVBVqikxLo-54" target="-MzAeiQj3mPVBVqikxLo-48">
          <mxGeometry width="50" height="50" relative="1" as="geometry">
            <mxPoint x="840" y="680" as="sourcePoint" />
            <mxPoint x="890" y="630" as="targetPoint" />
          </mxGeometry>
        </mxCell>
        <mxCell id="-MzAeiQj3mPVBVqikxLo-57" value="" style="endArrow=classic;html=1;rounded=0;exitX=0.5;exitY=1;exitDx=0;exitDy=0;entryX=0.5;entryY=0;entryDx=0;entryDy=0;" edge="1" parent="1" source="-MzAeiQj3mPVBVqikxLo-55" target="-MzAeiQj3mPVBVqikxLo-48">
          <mxGeometry width="50" height="50" relative="1" as="geometry">
            <mxPoint x="840" y="680" as="sourcePoint" />
            <mxPoint x="890" y="630" as="targetPoint" />
          </mxGeometry>
        </mxCell>
        <mxCell id="-MzAeiQj3mPVBVqikxLo-58" value="" style="endArrow=classic;html=1;rounded=0;entryX=0.366;entryY=1.004;entryDx=0;entryDy=0;entryPerimeter=0;exitX=0.5;exitY=0;exitDx=0;exitDy=0;" edge="1" parent="1" source="-MzAeiQj3mPVBVqikxLo-47" target="-MzAeiQj3mPVBVqikxLo-42">
          <mxGeometry width="50" height="50" relative="1" as="geometry">
            <mxPoint x="780" y="540" as="sourcePoint" />
            <mxPoint x="830" y="490" as="targetPoint" />
          </mxGeometry>
        </mxCell>
        <mxCell id="-MzAeiQj3mPVBVqikxLo-73" value="" style="endArrow=classic;html=1;rounded=0;exitX=0.5;exitY=0;exitDx=0;exitDy=0;entryX=0.5;entryY=1;entryDx=0;entryDy=0;" edge="1" parent="1" source="-MzAeiQj3mPVBVqikxLo-54" target="-MzAeiQj3mPVBVqikxLo-42">
          <mxGeometry width="50" height="50" relative="1" as="geometry">
            <mxPoint x="900" y="580" as="sourcePoint" />
            <mxPoint x="991" y="500" as="targetPoint" />
          </mxGeometry>
        </mxCell>
        <mxCell id="-MzAeiQj3mPVBVqikxLo-74" value="" style="endArrow=classic;html=1;rounded=0;entryX=0.5;entryY=1;entryDx=0;entryDy=0;exitX=0.5;exitY=0;exitDx=0;exitDy=0;" edge="1" parent="1" source="-MzAeiQj3mPVBVqikxLo-55" target="-MzAeiQj3mPVBVqikxLo-42">
          <mxGeometry width="50" height="50" relative="1" as="geometry">
            <mxPoint x="910" y="590" as="sourcePoint" />
            <mxPoint x="1001" y="520" as="targetPoint" />
          </mxGeometry>
        </mxCell>
        <mxCell id="-MzAeiQj3mPVBVqikxLo-75" value="목록찾기" style="ellipse;whiteSpace=wrap;html=1;" vertex="1" parent="1">
          <mxGeometry x="500" y="440" width="120" height="80" as="geometry" />
        </mxCell>
        <mxCell id="-MzAeiQj3mPVBVqikxLo-76" value="" style="endArrow=classic;html=1;rounded=0;entryX=0;entryY=0;entryDx=0;entryDy=0;" edge="1" parent="1" target="-MzAeiQj3mPVBVqikxLo-75">
          <mxGeometry width="50" height="50" relative="1" as="geometry">
            <mxPoint x="330" y="160" as="sourcePoint" />
            <mxPoint x="830" y="490" as="targetPoint" />
          </mxGeometry>
        </mxCell>
        <mxCell id="-MzAeiQj3mPVBVqikxLo-78" value="" style="ellipse;whiteSpace=wrap;html=1;" vertex="1" parent="1">
          <mxGeometry x="440" y="880" width="120" height="60" as="geometry" />
        </mxCell>
        <mxCell id="-MzAeiQj3mPVBVqikxLo-79" value="" style="ellipse;whiteSpace=wrap;html=1;" vertex="1" parent="1">
          <mxGeometry x="590" y="880" width="120" height="50" as="geometry" />
        </mxCell>
        <mxCell id="-MzAeiQj3mPVBVqikxLo-80" value="" style="ellipse;whiteSpace=wrap;html=1;" vertex="1" parent="1">
          <mxGeometry x="710" y="880" width="120" height="50" as="geometry" />
        </mxCell>
        <mxCell id="-MzAeiQj3mPVBVqikxLo-81" value="&lt;font color=&quot;#ff0000&quot;&gt;회원&lt;/font&gt;" style="ellipse;whiteSpace=wrap;html=1;strokeColor=#FF0000;" vertex="1" parent="1">
          <mxGeometry x="750" y="960" width="120" height="80" as="geometry" />
        </mxCell>
        <mxCell id="-MzAeiQj3mPVBVqikxLo-82" value="" style="endArrow=classic;html=1;rounded=0;exitX=0.5;exitY=1;exitDx=0;exitDy=0;entryX=0.5;entryY=0;entryDx=0;entryDy=0;" edge="1" parent="1" source="-MzAeiQj3mPVBVqikxLo-79" target="-MzAeiQj3mPVBVqikxLo-81">
          <mxGeometry width="50" height="50" relative="1" as="geometry">
            <mxPoint x="537.5" y="1160" as="sourcePoint" />
            <mxPoint x="587.5" y="1110" as="targetPoint" />
          </mxGeometry>
        </mxCell>
        <mxCell id="-MzAeiQj3mPVBVqikxLo-83" value="" style="endArrow=classic;html=1;rounded=0;exitX=0.5;exitY=1;exitDx=0;exitDy=0;entryX=0.5;entryY=0;entryDx=0;entryDy=0;" edge="1" parent="1" source="-MzAeiQj3mPVBVqikxLo-80" target="-MzAeiQj3mPVBVqikxLo-81">
          <mxGeometry width="50" height="50" relative="1" as="geometry">
            <mxPoint x="582.5" y="940" as="sourcePoint" />
            <mxPoint x="582.5" y="970" as="targetPoint" />
          </mxGeometry>
        </mxCell>
        <mxCell id="-MzAeiQj3mPVBVqikxLo-84" value="" style="endArrow=classic;html=1;rounded=0;exitX=0.5;exitY=1;exitDx=0;exitDy=0;entryX=0.5;entryY=0;entryDx=0;entryDy=0;" edge="1" parent="1" source="-MzAeiQj3mPVBVqikxLo-78" target="-MzAeiQj3mPVBVqikxLo-81">
          <mxGeometry width="50" height="50" relative="1" as="geometry">
            <mxPoint x="592.5" y="950" as="sourcePoint" />
            <mxPoint x="592.5" y="980" as="targetPoint" />
          </mxGeometry>
        </mxCell>
        <mxCell id="-MzAeiQj3mPVBVqikxLo-85" value="" style="ellipse;whiteSpace=wrap;html=1;" vertex="1" parent="1">
          <mxGeometry x="830" y="880" width="120" height="50" as="geometry" />
        </mxCell>
        <mxCell id="-MzAeiQj3mPVBVqikxLo-86" value="" style="ellipse;whiteSpace=wrap;html=1;" vertex="1" parent="1">
          <mxGeometry x="950" y="880" width="120" height="50" as="geometry" />
        </mxCell>
        <mxCell id="-MzAeiQj3mPVBVqikxLo-87" value="" style="endArrow=classic;html=1;rounded=0;exitX=0.5;exitY=1;exitDx=0;exitDy=0;entryX=0.5;entryY=0;entryDx=0;entryDy=0;" edge="1" parent="1" source="-MzAeiQj3mPVBVqikxLo-85" target="-MzAeiQj3mPVBVqikxLo-81">
          <mxGeometry width="50" height="50" relative="1" as="geometry">
            <mxPoint x="720" y="960" as="sourcePoint" />
            <mxPoint x="770" y="910" as="targetPoint" />
          </mxGeometry>
        </mxCell>
        <mxCell id="-MzAeiQj3mPVBVqikxLo-88" value="" style="endArrow=classic;html=1;rounded=0;exitX=0.5;exitY=1;exitDx=0;exitDy=0;entryX=0.5;entryY=0;entryDx=0;entryDy=0;" edge="1" parent="1" source="-MzAeiQj3mPVBVqikxLo-86" target="-MzAeiQj3mPVBVqikxLo-81">
          <mxGeometry width="50" height="50" relative="1" as="geometry">
            <mxPoint x="720" y="960" as="sourcePoint" />
            <mxPoint x="770" y="910" as="targetPoint" />
          </mxGeometry>
        </mxCell>
        <mxCell id="-MzAeiQj3mPVBVqikxLo-90" value="" style="ellipse;whiteSpace=wrap;html=1;" vertex="1" parent="1">
          <mxGeometry x="930" y="970" width="120" height="50" as="geometry" />
        </mxCell>
        <mxCell id="-MzAeiQj3mPVBVqikxLo-91" value="" style="ellipse;whiteSpace=wrap;html=1;" vertex="1" parent="1">
          <mxGeometry x="955" y="1050" width="120" height="50" as="geometry" />
        </mxCell>
        <mxCell id="-MzAeiQj3mPVBVqikxLo-92" value="" style="endArrow=classic;html=1;rounded=0;exitX=0;exitY=0.5;exitDx=0;exitDy=0;entryX=1;entryY=0.5;entryDx=0;entryDy=0;" edge="1" parent="1" source="-MzAeiQj3mPVBVqikxLo-90" target="-MzAeiQj3mPVBVqikxLo-81">
          <mxGeometry width="50" height="50" relative="1" as="geometry">
            <mxPoint x="835" y="1050" as="sourcePoint" />
            <mxPoint x="925" y="1050" as="targetPoint" />
          </mxGeometry>
        </mxCell>
        <mxCell id="-MzAeiQj3mPVBVqikxLo-93" value="" style="endArrow=classic;html=1;rounded=0;exitX=0;exitY=0.5;exitDx=0;exitDy=0;entryX=1;entryY=0.5;entryDx=0;entryDy=0;" edge="1" parent="1" source="-MzAeiQj3mPVBVqikxLo-91" target="-MzAeiQj3mPVBVqikxLo-81">
          <mxGeometry width="50" height="50" relative="1" as="geometry">
            <mxPoint x="835" y="1050" as="sourcePoint" />
            <mxPoint x="925" y="1050" as="targetPoint" />
          </mxGeometry>
        </mxCell>
        <mxCell id="-MzAeiQj3mPVBVqikxLo-94" value="" style="ellipse;whiteSpace=wrap;html=1;" vertex="1" parent="1">
          <mxGeometry x="1140" y="1010" width="120" height="50" as="geometry" />
        </mxCell>
        <mxCell id="-MzAeiQj3mPVBVqikxLo-96" value="" style="endArrow=classic;html=1;rounded=0;exitX=1;exitY=0.5;exitDx=0;exitDy=0;entryX=0;entryY=0.5;entryDx=0;entryDy=0;" edge="1" parent="1" source="-MzAeiQj3mPVBVqikxLo-90" target="-MzAeiQj3mPVBVqikxLo-94">
          <mxGeometry width="50" height="50" relative="1" as="geometry">
            <mxPoint x="780" y="1140" as="sourcePoint" />
            <mxPoint x="830" y="1090" as="targetPoint" />
          </mxGeometry>
        </mxCell>
        <mxCell id="-MzAeiQj3mPVBVqikxLo-97" value="" style="endArrow=classic;html=1;rounded=0;exitX=1;exitY=0.5;exitDx=0;exitDy=0;entryX=0;entryY=0.5;entryDx=0;entryDy=0;" edge="1" parent="1" source="-MzAeiQj3mPVBVqikxLo-91" target="-MzAeiQj3mPVBVqikxLo-94">
          <mxGeometry width="50" height="50" relative="1" as="geometry">
            <mxPoint x="1075" y="1025" as="sourcePoint" />
            <mxPoint x="1150" y="1065" as="targetPoint" />
          </mxGeometry>
        </mxCell>
      </root>
    </mxGraphModel>
  </diagram>
</mxfile>
